HIERARCHY
ROOT Hips
{
  OFFSET -31.5692 30.0904 122.763
  CHANNELS 6 Xposition Yposition Zposition Zrotation Xrotation Yrotation
  JOINT LeftUpLeg
  {
    OFFSET 8.64259 1.95398 -2.38835
    CHANNELS 3 Zrotation Xrotation Yrotation
    JOINT LeftLeg
    {
      OFFSET 43.7702 0 0
      CHANNELS 3 Zrotation Xrotation Yrotation
      JOINT LeftFoot
      {
        OFFSET 40.6238 0 0
        CHANNELS 3 Zrotation Xrotation Yrotation
        JOINT LeftToeBase
        {
          OFFSET 12.7242 0 0
          CHANNELS 3 Zrotation Xrotation Yrotation
          End Site
          {
            OFFSET 0 0 0
          }
        }
      }
    }
  }
  JOINT RightUpLeg
  {
    OFFSET -8.2249 1.95398 -2.59336
    CHANNELS 3 Zrotation Xrotation Yrotation
    JOINT RightLeg
    {
      OFFSET 43.5653 0 0
      CHANNELS 3 Zrotation Xrotation Yrotation
      JOINT RightFoot
      {
        OFFSET 40.6238 0 0
        CHANNELS 3 Zrotation Xrotation Yrotation
        JOINT RightToeBase
        {
          OFFSET 12.7242 0 0
          CHANNELS 3 Zrotation Xrotation Yrotation
          End Site
          {
            OFFSET 0 0 0
          }
        }
      }
    }
  }
  JOINT Spine
  {
    OFFSET 0.165834 0.87714 6.61349
    CHANNELS 3 Zrotation Xrotation Yrotation
    JOINT Spine1
    {
      OFFSET 7.38963 1.71661e-005 0
      CHANNELS 3 Zrotation Xrotation Yrotation
      JOINT Spine2
      {
        OFFSET 11.9445 1.14441e-005 0
        CHANNELS 3 Zrotation Xrotation Yrotation
        JOINT Spine3
        {
          OFFSET 14.7254 4.19617e-005 0
          CHANNELS 3 Zrotation Xrotation Yrotation
          JOINT Spine4
          {
            OFFSET 10.9679 0 0
            CHANNELS 3 Zrotation Xrotation Yrotation
            JOINT RightShoulder
            {
              OFFSET 2.46616 -1.6653 3.69651
              CHANNELS 3 Zrotation Xrotation Yrotation
              JOINT RightArm
              {
                OFFSET 13.0012 0 0
                CHANNELS 3 Zrotation Xrotation Yrotation
                JOINT RightForeArm
                {
                  OFFSET 28.7848 1.62311e-005 0
                  CHANNELS 3 Zrotation Xrotation Yrotation
                  JOINT RightHand
                  {
                    OFFSET 26.5688 1.62095e-005 0
                    CHANNELS 3 Zrotation Xrotation Yrotation
                    End Site
                    {
                      OFFSET 0 0 0
                    }
                  }
                }
              }
            }
            JOINT LeftShoulder
            {
              OFFSET 2.38034 -1.29275 -3.7523
              CHANNELS 3 Zrotation Xrotation Yrotation
              JOINT LeftArm
              {
                OFFSET 16.3182 6.07031e-005 0
                CHANNELS 3 Zrotation Xrotation Yrotation
                JOINT LeftForeArm
                {
                  OFFSET 27.0901 0 0
                  CHANNELS 3 Zrotation Xrotation Yrotation
                  JOINT LeftHand
                  {
                    OFFSET 24.5451 1.51738e-005 0
                    CHANNELS 3 Zrotation Xrotation Yrotation
                    End Site
                    {
                      OFFSET 0 0 0
                    }
                  }
                }
              }
            }
            JOINT Neck
            {
              OFFSET 5.0226 -0.0266342 0
              CHANNELS 3 Zrotation Xrotation Yrotation
              JOINT Head
              {
                OFFSET 6.69364 2.86102e-005 0
                CHANNELS 3 Zrotation Xrotation Yrotation
                End Site
                {
                  OFFSET 0 0 0
                }
              }
            }
          }
        }
      }
    }
  }
}
MOTION
Frames:	13
Frame Time:	0.0416667
-215.678 100.261 -194.848 -101.554 42.7382 -82.5416 -171.991 1.25627 92.7447 -17.016 8.18548 0.151502 64.8477 3.50327 0.221741 26.0145 -1.87705 1.54301 171.232 -0.0293328 90.0231 -20.4797 -1.8671 1.56486 69.1714 -5.4096 -1.73437 19.4879 2.36338 6.87047 0.257159 8.20583 -89.9977 10.4624 0.513401 -0.0408684 -1.20841 0.511087 -0.0634324 -23.7444 0.501935 0.115325 -3.73172 0.501932 0.115324 90.4542 -29.5075 -106.042 39.7688 -6.13955 -1.5682 2.49424 -29.5506 -18.731 -23.6263 0.258159 -12.2534 -90.2234 -55.0175 79.4389 -18.9998 8.2953 -6.63451 -3.33269 23.1788 -0.287938 6.56157 -0.974953 -22.4969 9.08059 -1.13275 -1.81884 -2.71691 -0.721555 -1.31736 
-215.692 100.226 -194.725 -100.808 42.7207 -82.5191 -171.687 2.39786 93.3228 -17.8089 8.76249 -0.0610905 64.715 3.42785 0.799324 26.519 -1.26284 0.530769 171.767 0.467418 90.6199 -20.3228 -1.36339 1.54904 68.9661 -5.23477 -1.84884 19.3662 2.41301 6.86957 0.224581 8.15022 -90.0212 10.5737 0.437604 -0.0815238 -1.09722 0.43361 -0.100716 -23.633 0.441876 0.0537556 -3.62032 0.441874 0.0537673 90.2235 -29.7279 -106.419 39.8215 -5.85747 -1.3052 2.32234 -30.4703 -18.6429 -22.8942 0.343367 -13.2387 -90.2096 -54.4701 79.3491 -18.7319 8.3318 -6.77958 -3.42302 23.0514 -0.777291 6.96569 -1.07022 -22.5574 9.05614 -1.07015 -2.26487 -2.69108 -0.560389 -0.814496 
-215.942 100.278 -194.547 -100.942 43.1656 -82.6443 -171.829 1.94013 92.8474 -17.404 7.93886 -0.0980175 64.9951 3.55939 0.295598 25.7221 -1.98036 1.42864 171.555 0.454444 90.1678 -20.3265 -1.9202 1.41615 68.941 -5.21565 -1.71826 19.439 2.37218 6.9076 0.23675 8.1876 -89.9917 10.4988 0.475416 -0.0258162 -1.17209 0.473821 -0.0467294 -23.7079 0.4612 0.118265 -3.69527 0.461188 0.118251 90.2186 -29.9003 -106.362 39.4847 -5.97261 -1.30892 2.75009 -30.0054 -18.1596 -23.2018 0.311213 -12.8114 -90.1145 -54.1368 79.4181 -18.5935 7.95392 -7.27239 -2.76797 23.6547 -1.02898 7.20837 -1.19554 -23.4344 9.48073 -0.900684 -2.1182 -2.97301 -0.416704 -0.898961 
-216.07 100.26 -194.196 -100.664 43.7483 -82.6923 -171.889 2.38806 92.6806 -17.6009 7.69292 -0.198354 64.8273 3.42342 0.920394 25.0801 -2.0395 0.74211 171.651 1.13302 90.102 -20.7208 -2.51229 1.30621 68.7228 -5.21365 -1.90181 19.4915 2.29916 7.08445 0.235662 8.18482 -90.0203 10.5045 0.460116 -0.081334 -1.16635 0.456101 -0.101518 -23.7022 0.463278 0.060711 -3.68952 0.463281 0.0607081 90.704 -30.6117 -105.148 38.7217 -6.23374 -2.01348 2.96612 -30.7941 -17.761 -23.6709 0.246474 -12.4795 -90.1867 -54.4857 79.3845 -18.0594 7.08733 -7.54606 -2.65032 25.6021 -0.771293 6.77136 -1.06659 -23.5827 9.53976 -0.585456 -1.45411 -3.02786 -0.256234 -1.52599 
-215.617 100.004 -193.485 -100.427 44.7969 -82.8854 -171.886 4.30148 92.4817 -19.8554 7.30421 -0.5598 65.1279 3.0939 1.21191 23.8878 -2.70216 0.924863 171.447 4.10648 90.0014 -24.4055 -3.97193 1.41473 68.5553 -5.48923 -2.44798 19.2557 2.43651 6.94352 0.322835 8.22599 -90.0783 10.4224 0.607319 -0.209158 -1.24841 0.597535 -0.235698 -23.7847 0.642098 -0.0169597 -3.77203 0.642116 -0.0169605 91.29 -29.4993 -104.374 38.8694 -5.99861 -2.08292 2.85168 -31.5641 -17.5991 -23.8054 0.239282 -12.5871 -90.3847 -54.7269 79.1519 -18.297 7.38517 -7.38187 -2.67077 23.7568 -1.16629 8.43064 -1.47676 -23.57 10.7506 -0.432967 -0.358 -3.64902 -0.336098 -2.16 
-214.192 99.3406 -191.996 -99.075 45.5419 -84.8936 -172.632 8.01936 91.1644 -22.776 6.2222 -0.908331 65.2593 2.78243 1.4101 23.0142 -2.95729 0.479312 170.801 11.1512 88.8768 -32.3144 -6.82422 1.48874 68.2496 -5.1758 -2.75049 19.054 2.56068 6.80206 0.38921 8.37235 -89.9839 10.1294 0.783041 -0.0338678 -1.54127 0.780774 -0.0682985 -24.0782 0.757005 0.203045 -4.06558 0.756997 0.203052 91.0354 -29.3148 -104.946 38.0952 -5.55127 -2.2491 1.50929 -31.2932 -19.298 -23.0381 0.347755 -13.4373 -90.1581 -54.2231 79.3731 -18.3943 7.88499 -5.6236 -1.00285 19.6286 -5.3639 9.75317 -2.05282 -25.1871 14.3001 0.0406383 1.094 -4.33343 -0.232458 -2.30101 
-211.48 98.3161 -189.535 -94.3653 43.5657 -90.3384 -174.131 16.0728 88.5896 -26.7021 7.35807 -1.33199 63.222 1.34527 2.18319 22.0149 -3.65523 0.957577 170.741 20.8206 87.0669 -38.8507 -9.02952 1.37766 66.5212 -3.62071 -2.34925 18.6676 2.86138 6.3306 0.3625 8.51004 -89.851 9.8529 0.790332 0.231851 -1.81783 0.799735 0.196846 -24.3543 0.684112 0.458665 -4.34167 0.684081 0.458666 90.3722 -28.5046 -106.591 37.0097 -4.51772 -2.31291 0.0827762 -33.1737 -20.0945 -22.7347 0.362227 -14.1649 -90.2247 -53.8945 79.2122 -18.2155 6.97073 -4.25222 1.14165 18.2922 -9.0035 10.3605 -2.47931 -27.2016 21.0955 0.120211 3.92946 -4.69209 -1.13675 -3.4081 
-207.512 96.6441 -186.727 -89.0903 37.2673 -96.4814 -173.945 27.66 86.0813 -31.7747 15.8864 -3.19965 58.8005 -1.43704 1.07576 21.1975 -4.07964 0.958645 168.985 30.5141 84.5392 -43.2782 -6.92264 3.26439 67.4883 -3.70152 -3.53157 17.0997 3.18585 7.35862 0.0578122 8.65459 -89.8785 9.56442 0.170073 0.227474 -2.10655 0.179922 0.219757 -24.6414 0.0938586 0.268072 -4.62876 0.0938436 0.268064 90.5744 -27.9177 -106.407 33.7656 -5.80818 -1.87924 0.948765 -31.4106 -21.1564 -24.3903 0.589175 -14.3746 -90.9073 -53.0572 78.052 -20.1758 5.23689 -2.15847 3.75904 20.5835 -11.5195 12.4299 -3.3213 -29.4666 30.1691 0.0836434 6.4246 -6.02121 -2.39215 -3.71117 
-204.153 94.7088 -184.124 -87.9718 33.111 -98.7926 -170.549 33.22 83.4432 -41.9636 18.7705 -5.45369 64.9889 2.66044 -0.0313352 25.6794 -2.6414 3.18518 167.155 36.4583 82.2007 -46.9829 -6.43802 4.86507 69.7731 -4.93551 -4.15978 15.3663 3.61082 8.22523 -0.137282 8.8136 -89.9773 9.24691 -0.263585 0.0638251 -2.42401 -0.260508 0.0753611 -24.9594 -0.270571 -0.0183391 -4.94677 -0.270591 -0.018349 90.4795 -27.8267 -106.638 33.3604 -3.82392 0.619544 2.77103 -22.9308 -18.1871 -24.2671 0.878536 -13.9117 -91.2144 -51.7297 77.3155 -22.093 5.1269 -1.08418 4.2151 25.1798 -11.1896 16.4219 -4.1197 -28.2327 32.2909 -0.758583 4.5557 -5.96026 -2.59017 -2.11263 
-201.903 94.2608 -181.49 -90.9389 33.7204 -97.8474 -166.332 29.8912 82.1546 -58.5072 9.04096 -5.13173 67.7241 3.8289 1.95573 27.5156 -0.680336 0.236992 167.78 36.4381 81.2226 -46.762 -7.29911 3.72226 68.2169 -4.1035 -3.81699 15.0375 3.96365 7.57067 -0.18653 8.80445 -90.0225 9.26498 -0.382045 -0.0168231 -2.4059 -0.38239 -7.31639e-006 -24.9415 -0.359318 -0.130861 -4.92882 -0.359318 -0.130874 91.0195 -27.1569 -105.783 36.9009 -4.55853 5.47369 5.31852 -19.533 -15.6246 -24.0776 0.898412 -13.2741 -91.3583 -52.5823 77.2983 -22.0154 1.25352 2.62979 10.2419 32.2853 -16.4832 18.4109 -4.70143 -28.4633 26.4649 -0.568796 3.27532 -4.66096 -1.74711 -0.410935 
-199.597 94.5205 -178.833 -95.8272 34.8457 -93.6464 -168.026 20.0841 85.7374 -66.775 16.4572 -1.62687 68.3188 4.79771 4.04654 26.851 -0.782458 -0.378883 169.378 32.0573 82.316 -42.6749 -6.21112 2.42855 65.7152 -2.37676 -2.96586 12.9706 4.84962 7.4775 -0.419243 8.69711 -90.0858 9.47911 -0.874582 -0.1038 -2.19155 -0.878308 -0.0652067 -24.7288 -0.802949 -0.361861 -4.71612 -0.802948 -0.36187 91.8227 -27.2743 -104.072 41.5014 -4.68641 11.5145 5.80124 -24.0098 -15.7789 -22.3943 0.613509 -13.3606 -90.7348 -52.439 78.1719 -21.182 -0.473421 6.97006 18.2043 29.3871 -28.5678 19.0164 -5.97323 -33.3295 19.6418 0.168031 1.29524 -2.6808 -0.232692 1.4563 
-196.069 94.7054 -175.192 -99.9886 36.0277 -90.5543 -170.054 9.44294 87.1739 -64.2131 18.4965 0.161728 71.9568 7.85681 4.0817 26.7563 -0.75331 -0.608565 171.803 28.2572 82.8508 -35.9952 -4.97431 0.886334 61.6554 0.936821 -1.25663 10.4609 5.81282 7.70801 -0.821086 8.45305 -89.8108 9.97335 -1.55039 0.498194 -1.69678 -1.52697 0.565951 -24.2393 -1.62843 0.00908508 -4.22666 -1.62841 0.00908794 92.1155 -29.196 -102.798 44.779 -3.81593 17.6662 5.58868 -25.3235 -16.9688 -22.8677 0.485321 -12.7065 -89.7659 -50.3114 79.1418 -18.9639 0.582818 4.31714 23.9767 24.657 -38.8266 17.8695 -6.35456 -36.8197 12.1454 1.6268 -3.71484 -1.46795 2.54759 4.62483 
-190.557 94.4611 -169.257 -101.321 33.2583 -89.3212 -172.54 8.10025 86.0983 -56.5676 18.5619 0.449529 74.2237 9.60402 3.7797 28.3981 -1.19626 3.04897 171.017 24.458 81.8652 -22.2068 -1.72291 2.09438 55.9601 4.05128 -0.920988 15.0365 4.37408 6.33328 -1.36329 8.168 -89.6052 10.5502 -2.53391 1.01171 -1.11882 -2.48695 1.12231 -23.6735 -2.72075 0.202883 -3.66082 -2.72076 0.20288 91.2697 -30.7875 -103.964 46.3432 1.21804 24.549 0.530628 -23.622 -22.6262 -20.8905 1.52969 -20.0456 -88.772 -47.6393 80.0989 -14.2951 4.70351 -8.39538 23.9736 25.5501 -38.9975 21.5072 -8.05853 -37.9546 8.21004 2.35257 -6.11881 -1.55529 3.65712 3.99816 
